# xmcd CD database file
#
# Track frame offsets:
#	150
#	15347
#	30962
#	43540
#	54376
#	67678
#	87946
#	103004
#	125474
#	144380
#
# Disc length: 2273 seconds
#
# Revision: 0
# Processed by: cddbd v1.5.1PL0 Copyright (c) Steve Scherf et al.
# Submitted via: CDex 1.50
#
DISCID=6f08df0a
DTITLE=Various Artist - ジャズ・リラクゼーション VOL.3 イタリア民謡集?
DYEAR=1900
DGENRE=Jazz
TTITLE0=サンタルチア
TTITLE1=チリビンビン
TTITLE2=海に来よ
TTITLE3=フニクリ　フニクラ
TTITLE4=カロメオ　ベン
TTITLE5=さらばナポリ
TTITLE6=村の娘
TTITLE7=カプリ島
TTITLE8=麦打ち歌
TTITLE9=愛の喜び
EXTD=
EXTT0=
EXTT1=
EXTT2=
EXTT3=
EXTT4=
EXTT5=
EXTT6=
EXTT7=
EXTT8=
EXTT9=
PLAYORDER=
